<?xml version="1.0" encoding="utf-8"?>
<!-- Generator: Adobe Illustrator 26.0.1, SVG Export Plug-In . SVG Version: 6.00 Build 0)  -->
<svg version="1.1" id="Layer_1" xmlns="http://www.w3.org/2000/svg" xmlns:xlink="http://www.w3.org/1999/xlink" x="0px" y="0px"
	 viewBox="0 0 173 40" style="enable-background:new 0 0 173 40;" xml:space="preserve">
<style type="text/css">
	.st0{fill:#33CC95;}
	.st1{clip-path:url(#SVGID_00000170977302403654280590000015881584080946998942_);}
	.st2{fill:none;stroke:#FFFFFF;stroke-width:2;stroke-linecap:round;stroke-linejoin:round;}
	.st3{fill:none;}
	.st4{display:none;fill:#FFFFFF;}
	.st5{font-family:'GothamRounded-Medium';}
	.st6{font-size:19px;}
	.st7{fill:#F0F2F5;}
</style>
<path class="st0" d="M34.1,5.7C30.4,1.9,25.3-0.2,20-0.2S9.6,1.9,5.9,5.7S0,14.5,0,19.8S2.1,30.2,5.9,34s8.8,5.9,14.1,5.9
	s10.4-2.1,14.1-5.9S40,25.2,40,19.8S37.9,9.4,34.1,5.7z"/>
<g>
	<defs>
		<rect id="SVGID_1_" x="6.9" y="6.1" width="27.4" height="27.4"/>
	</defs>
	<clipPath id="SVGID_00000173133652038295040280000016251421698297761971_">
		<use xlink:href="#SVGID_1_"  style="overflow:visible;"/>
	</clipPath>
	<g style="clip-path:url(#SVGID_00000173133652038295040280000016251421698297761971_);">
		<path class="st2" d="M20.6,7.2v25.1"/>
		<path class="st2" d="M26.3,11.8h-8.6c-1.1,0-2.1,0.4-2.8,1.2c-0.8,0.8-1.2,1.8-1.2,2.8c0,1.1,0.4,2.1,1.2,2.8
			c0.8,0.8,1.8,1.2,2.8,1.2h5.7c1.1,0,2.1,0.4,2.8,1.2c0.8,0.8,1.2,1.8,1.2,2.8c0,1.1-0.4,2.1-1.2,2.8c-0.8,0.8-1.8,1.2-2.8,1.2
			h-9.7"/>
	</g>
</g>
<rect x="46.2" y="11.5" class="st3" width="125" height="17.1"/>
<text transform="matrix(1 0 0 1 46.1948 25.4205)" class="st4 st5 st6">Budget App</text>
<g>
	<path class="st7" d="M47.9,13.1c0-0.7,0.5-1.2,1.2-1.2h4.8c1.5,0,2.7,0.4,3.5,1.2c0.6,0.6,0.9,1.3,0.9,2.2v0c0,1.6-0.9,2.5-1.9,3
		c1.6,0.5,2.6,1.4,2.6,3.2v0c0,2.4-2,3.6-4.9,3.6h-5c-0.7,0-1.2-0.5-1.2-1.2V13.1z M53.4,17.5c1.5,0,2.5-0.6,2.5-1.8v0
		c0-1-0.8-1.7-2.3-1.7h-3.4v3.5H53.4z M54.1,23.2c1.6,0,2.6-0.6,2.6-1.8v0c0-1.1-0.9-1.8-2.7-1.8h-3.7v3.6H54.1z"/>
	<path class="st7" d="M70.3,24.2c0,0.6-0.5,1.1-1.2,1.1c-0.6,0-1.2-0.5-1.2-1.1v-0.5c-0.6,0.9-1.6,1.8-3.1,1.8
		c-2.3,0-3.6-1.5-3.6-3.9v-5.3c0-0.6,0.5-1.2,1.1-1.2c0.6,0,1.2,0.5,1.2,1.2v4.7c0,1.6,0.8,2.4,2.1,2.4c1.3,0,2.3-0.9,2.3-2.5v-4.6
		c0-0.6,0.5-1.2,1.2-1.2c0.6,0,1.2,0.5,1.2,1.2V24.2z"/>
	<path class="st7" d="M83,24.2c0,0.6-0.5,1.1-1.1,1.1c-0.6,0-1.2-0.5-1.2-1.1v-0.6c-0.7,1-1.8,1.9-3.4,1.9c-2.4,0-4.7-1.9-4.7-5.2v0
		c0-3.3,2.3-5.2,4.7-5.2c1.7,0,2.7,0.8,3.4,1.8v-4.4c0-0.6,0.5-1.1,1.1-1.1c0.6,0,1.2,0.5,1.2,1.1V24.2z M74.9,20.2L74.9,20.2
		c0,2,1.3,3.2,2.9,3.2c1.5,0,2.9-1.3,2.9-3.2v0c0-1.9-1.4-3.2-2.9-3.2C76.3,17,74.9,18.2,74.9,20.2z"/>
	<path class="st7" d="M86.5,27.4c-0.4-0.2-0.6-0.5-0.6-0.9c0-0.5,0.4-1,1-1c0.2,0,0.3,0,0.4,0.1c0.9,0.5,1.9,0.8,3.1,0.8
		c2.1,0,3.2-1.1,3.2-3.1v-0.8c-0.8,1.1-1.9,1.8-3.5,1.8c-2.4,0-4.6-1.7-4.6-4.7v0c0-3,2.2-4.7,4.6-4.7c1.7,0,2.7,0.8,3.5,1.7v-0.5
		c0-0.6,0.5-1.1,1.1-1.1c0.6,0,1.2,0.5,1.2,1.2v6.9c0,1.7-0.4,2.9-1.3,3.8c-0.9,0.9-2.3,1.3-4.1,1.3C88.9,28.3,87.7,28,86.5,27.4z
		 M93.5,19.7L93.5,19.7c0-1.7-1.3-2.8-2.9-2.8c-1.6,0-2.8,1.1-2.8,2.8v0c0,1.6,1.3,2.8,2.8,2.8C92.1,22.5,93.5,21.4,93.5,19.7z"/>
	<path class="st7" d="M103.2,25.5c-2.9,0-5.1-2.1-5.1-5.2v0c0-2.9,2-5.2,4.9-5.2c3.2,0,4.8,2.6,4.8,4.9c0,0.6-0.5,1.1-1.1,1.1h-6.3
		c0.2,1.6,1.4,2.5,2.9,2.5c1,0,1.7-0.3,2.4-0.9c0.2-0.1,0.3-0.2,0.6-0.2c0.5,0,0.9,0.4,0.9,0.9c0,0.3-0.1,0.5-0.3,0.7
		C105.9,24.9,104.8,25.5,103.2,25.5z M105.5,19.5c-0.2-1.5-1-2.6-2.5-2.6c-1.4,0-2.4,1.1-2.6,2.6H105.5z"/>
	<path class="st7" d="M110.6,22.5v-5.3h-0.4c-0.6,0-1-0.4-1-1c0-0.6,0.4-1,1-1h0.4v-1.7c0-0.6,0.5-1.1,1.2-1.1
		c0.6,0,1.1,0.5,1.1,1.1v1.7h1.8c0.6,0,1,0.4,1,1c0,0.6-0.5,1-1,1h-1.8v4.9c0,0.9,0.5,1.3,1.2,1.3c0.3,0,0.5-0.1,0.6-0.1
		c0.5,0,1,0.4,1,0.9c0,0.4-0.3,0.8-0.6,0.9c-0.5,0.2-1,0.3-1.6,0.3C111.8,25.4,110.6,24.7,110.6,22.5z"/>
	<path class="st7" d="M123.1,23.7l4.9-11c0.3-0.6,0.7-0.9,1.4-0.9h0.1c0.7,0,1.1,0.4,1.4,0.9l4.9,11c0.1,0.2,0.1,0.3,0.1,0.5
		c0,0.6-0.5,1.1-1.1,1.1c-0.6,0-0.9-0.3-1.1-0.8l-1.1-2.5h-6.5l-1.1,2.6c-0.2,0.5-0.6,0.7-1.1,0.7c-0.6,0-1.1-0.5-1.1-1.1
		C123,24.1,123,23.9,123.1,23.7z M131.8,19.9l-2.3-5.4l-2.3,5.4H131.8z"/>
	<path class="st7" d="M138.3,16.2c0-0.6,0.5-1.2,1.1-1.2c0.6,0,1.2,0.5,1.2,1.2v0.6c0.7-1,1.8-1.9,3.4-1.9c2.4,0,4.7,1.9,4.7,5.2v0
		c0,3.3-2.3,5.2-4.7,5.2c-1.7,0-2.7-0.8-3.4-1.8v3.6c0,0.6-0.5,1.1-1.2,1.1c-0.6,0-1.1-0.5-1.1-1.1V16.2z M146.3,20.2L146.3,20.2
		c0-2-1.3-3.2-2.9-3.2s-2.9,1.3-2.9,3.2v0c0,1.9,1.4,3.2,2.9,3.2C145,23.4,146.3,22.2,146.3,20.2z"/>
	<path class="st7" d="M151.1,16.2c0-0.6,0.5-1.2,1.1-1.2c0.6,0,1.2,0.5,1.2,1.2v0.6c0.7-1,1.8-1.9,3.4-1.9c2.4,0,4.7,1.9,4.7,5.2v0
		c0,3.3-2.3,5.2-4.7,5.2c-1.7,0-2.7-0.8-3.4-1.8v3.6c0,0.6-0.5,1.1-1.2,1.1c-0.6,0-1.1-0.5-1.1-1.1V16.2z M159.1,20.2L159.1,20.2
		c0-2-1.3-3.2-2.9-3.2s-2.9,1.3-2.9,3.2v0c0,1.9,1.4,3.2,2.9,3.2C157.8,23.4,159.1,22.2,159.1,20.2z"/>
</g>
</svg>
